<?xml version="1.0" encoding="UTF-8"?>
<svg id="Layer_2" data-name="Layer 2" xmlns="http://www.w3.org/2000/svg" xmlns:xlink="http://www.w3.org/1999/xlink" viewBox="0 0 614.05 746.54">
  <defs>
    <style>
      .cls-1 {
        fill: url(#linear-gradient-2);
      }

      .cls-2 {
        fill: #616e7d;
      }

      .cls-3 {
        fill: url(#radial-gradient);
      }

      .cls-4 {
        fill: url(#radial-gradient-2);
      }

      .cls-5 {
        fill: none;
      }

      .cls-6 {
        fill: url(#linear-gradient-3);
      }

      .cls-7 {
        fill: url(#linear-gradient);
      }
    </style>
    <linearGradient id="linear-gradient" x1="0" y1="257.96" x2="533.76" y2="257.96" gradientUnits="userSpaceOnUse">
      <stop offset="0" stop-color="#984e20"/>
      <stop offset="0" stop-color="#984e20"/>
      <stop offset=".31" stop-color="#b3762a"/>
      <stop offset=".59" stop-color="#c89331"/>
      <stop offset=".83" stop-color="#d4a435"/>
      <stop offset="1" stop-color="#daab37"/>
    </linearGradient>
    <linearGradient id="linear-gradient-2" x1="108.79" y1="196.38" x2="283.97" y2="196.38" xlink:href="#linear-gradient"/>
    <radialGradient id="radial-gradient" cx="330.11" cy="112.39" fx="330.11" fy="112.39" r="112.54" gradientUnits="userSpaceOnUse">
      <stop offset="0" stop-color="#816036"/>
      <stop offset=".36" stop-color="#493821"/>
      <stop offset=".72" stop-color="#1a1610"/>
      <stop offset=".9" stop-color="#000"/>
    </radialGradient>
    <linearGradient id="linear-gradient-3" x1="144.06" y1="638.54" x2="614.05" y2="638.54" xlink:href="#linear-gradient"/>
    <radialGradient id="radial-gradient-2" cx="379.04" cy="646.52" fx="379.04" fy="646.52" r="58.91" xlink:href="#radial-gradient"/>
  </defs>
  <g id="Object">
    <g>
      <path class="cls-5" d="M196.38,21.2c61.92,0,116.22,32.21,147.37,80.71l8.82-5.13C319.6,45.22,261.98,10.91,196.38,10.91,94.12,10.91,10.91,94.11,10.91,196.38s83.2,185.47,185.47,185.47c9.92,0,19.6-.99,29.11-2.51-.4-3.38-.59-6.82-.77-10.26-9.25,1.52-18.66,2.49-28.34,2.49-96.74,0-175.2-78.42-175.2-175.19S99.65,21.2,196.38,21.2Z"/>
      <path class="cls-5" d="M379.03,206.48c.77,0,1.53,.12,2.29,.12,.19-3.4,.53-6.76,.53-10.22,0-30.42-7.5-59.09-20.55-84.47l-8.86,5.16c12.14,23.85,19.14,50.73,19.14,79.31,0,3.56-.33,7.03-.53,10.51,2.65-.12,5.28-.41,7.99-.41Z"/>
      <path class="cls-7" d="M10.91,196.38C10.91,94.11,94.12,10.91,196.38,10.91c65.59,0,123.22,34.31,156.19,85.87l9.42-5.48C327.12,36.52,265.99,0,196.38,0,88.11,0,0,88.1,0,196.38s88.11,196.39,196.38,196.39c10.49,0,20.7-1.07,30.74-2.65,13.55,71.62,76.34,125.81,151.91,125.81,85.46,0,154.73-69.25,154.73-154.7,0-81-62.29-147.37-141.53-154.07,.2-3.59,.54-7.13,.54-10.77,0-32.43-8.04-62.98-22.04-89.96l-9.43,5.48c13.05,25.39,20.55,54.05,20.55,84.47,0,3.47-.35,6.83-.53,10.22-.76,0-1.51-.12-2.29-.12-2.71,0-5.34,.28-7.99,.41,.21-3.48,.53-6.94,.53-10.51,0-28.58-7-55.47-19.14-79.31l-37.92,22.09c8.41,17.33,13.27,36.68,13.27,57.22,0,6.68-.67,13.18-1.62,19.58-47.77,17.41-84.47,57.61-97.01,107.53-10.48,2.69-21.43,4.29-32.77,4.29-72.58,0-131.4-58.83-131.4-131.4S123.81,65,196.38,65c45.78,0,86.04,23.42,109.55,58.93l37.82-22.02c-31.15-48.5-85.45-80.71-147.37-80.71C99.65,21.2,21.19,99.64,21.19,196.38s78.46,175.19,175.2,175.19c9.68,0,19.09-.97,28.34-2.49,.18,3.44,.37,6.88,.77,10.26-9.51,1.52-19.19,2.51-29.11,2.51-102.27,0-185.47-83.2-185.47-185.47Z"/>
      <path class="cls-1" d="M196.38,152.6c13.45,0,25.33,6.18,33.34,15.71l38.26-22.27c-15.85-22.51-42-37.25-71.6-37.25-48.38,0-87.6,39.21-87.6,87.59s39.22,87.6,87.6,87.6,87.59-39.21,87.59-87.6c0-12.51-2.67-24.37-7.39-35.14l-38.52,22.43c1.24,4.05,2.1,8.25,2.1,12.71,0,24.19-19.58,43.81-43.78,43.81s-43.81-19.62-43.81-43.81,19.62-43.78,43.81-43.78Z"/>
      <path class="cls-3" d="M449.54,89.86c1.73,.93,3.84,.91,5.53-.1l5.83-3.38c.87-.51,1.39-1.46,1.39-2.47-.02-1.03-.56-1.96-1.48-2.45l-26.46-14.47,3.02-1.78,1.31-1.74-.3-2.15-3.66-6.09c-.81-1.32-2.54-1.76-3.88-.99l-3.12,1.83-.16-29.86c-.02-1.01-.54-1.92-1.44-2.43h-2.81l-5.79,3.38c-1.74,1.01-2.8,2.88-2.8,4.88l.18,31.5-1.53,.91-.18-29.88c0-.99-.54-1.95-1.42-2.43l-2.83,.02-5.8,3.36c-1.74,1.01-2.8,2.87-2.8,4.88l.21,31.5-1.56,.91-.18-29.88c0-.99-.54-1.92-1.42-2.43l-2.81,.02-5.79,3.36c-1.74,1.01-2.81,2.87-2.78,4.88l.15,26.84c0,.99-.5,1.9-1.37,2.43l-22.81,13.28-9.42,5.48-8.82,5.13-37.82,22.02-37.95,22.11-38.26,22.27-27.35,15.93c-4.39,2.55-5.79,8.26-3.07,12.55l.41,.65c2.23,3.5,6.81,4.61,10.37,2.53l27.98-16.3,38.52-22.43,37.93-22.08,37.92-22.09,8.86-5.16,9.43-5.48,22.79-13.26,2.72-.04,24.58,13.46c1.72,.93,3.82,.91,5.51-.05l5.83-3.4c.9-.52,1.42-1.46,1.39-2.49,0-1.01-.56-1.94-1.45-2.43l-26.47-14.49,1.48-.85,28.08,15.34c1.72,.97,3.8,.93,5.5-.06l5.83-3.38c.9-.53,1.42-1.48,1.42-2.49-.02-1.01-.59-1.97-1.47-2.45l-26.47-14.47,1.48-.87,28.05,15.38Z"/>
      <polygon class="cls-2" points="361.45 603.8 343.86 571.45 343.84 571.45 361.45 603.8"/>
      <path class="cls-6" d="M289.48,530.54c-80.32,0-145.42,65.1-145.42,145.43v70.57h469.99v-70.57c0-80.33-65.12-145.43-145.46-145.43h-179.11Zm147.19,191.04h-115.27l-33.36-175.19c3.28-.24,6.56-.48,9.88-.48h162.23c3.34,0,6.62,.24,9.88,.48l-33.36,175.19Z"/>
      <polygon class="cls-4" points="342.89 721.58 415.19 721.58 397.29 603.8 396.65 603.8 414.25 571.45 343.86 571.45 361.45 603.8 360.82 603.8 342.89 721.58"/>
    </g>
  </g>
</svg>