<?xml version="1.0" encoding="UTF-8"?>
<svg id="Layer_2" data-name="Layer 2" xmlns="http://www.w3.org/2000/svg" xmlns:xlink="http://www.w3.org/1999/xlink" viewBox="0 0 1097.91 318.03">
  <defs>
    <style>
      .cls-1 {
        fill: url(#radial-gradient-5);
      }

      .cls-2 {
        fill: url(#radial-gradient-4);
      }

      .cls-3 {
        fill: url(#radial-gradient-6);
      }

      .cls-4 {
        fill: url(#radial-gradient);
      }

      .cls-5 {
        fill: url(#radial-gradient-2);
      }

      .cls-6 {
        fill: url(#radial-gradient-3);
      }
    </style>
    <radialGradient id="radial-gradient" cx="87.62" cy="139.34" fx="87.62" fy="139.34" r="112.01" gradientUnits="userSpaceOnUse">
      <stop offset=".11" stop-color="#fbe456"/>
      <stop offset=".25" stop-color="#f0d54d"/>
      <stop offset="1" stop-color="#a06a10"/>
    </radialGradient>
    <radialGradient id="radial-gradient-2" cx="75.45" cy="171.26" fx="75.45" fy="171.26" r="8.31" xlink:href="#radial-gradient"/>
    <radialGradient id="radial-gradient-3" cx="99.78" cy="171.26" fx="99.78" fy="171.26" r="8.31" xlink:href="#radial-gradient"/>
    <radialGradient id="radial-gradient-4" cx="75.45" cy="148.13" fx="75.45" fy="148.13" r="8.31" xlink:href="#radial-gradient"/>
    <radialGradient id="radial-gradient-5" cx="99.78" cy="148.13" fx="99.78" fy="148.13" r="8.31" xlink:href="#radial-gradient"/>
    <radialGradient id="radial-gradient-6" cx="59.31" cy="35.86" fx="59.31" fy="35.86" r="7.27" xlink:href="#radial-gradient"/>
  </defs>
  <g id="Layer_1-2" data-name="Layer 1">
    <g>
      <g>
        <path d="M240,95.38c-1.01-4.06-3.89-8.46-8.62-13.19l.34-1.02,38.56-13.53v27.06c11.27-8.79,22.49-15.67,33.65-20.63,11.16-4.96,21.25-7.44,30.27-7.44,11.05,0,19.79,3.55,26.21,10.65,6.43,7.1,9.64,17.87,9.64,32.3v96.73c0,9.02,.51,15.56,1.52,19.62,1.01,4.06,3.89,8.46,8.62,13.19l-.34,1.01h-48.37l-.34-1.01c4.74-4.74,7.61-9.13,8.62-13.19,1.01-4.06,1.52-10.6,1.52-19.62V105.87c0-8.79-2.03-15.56-6.09-20.29-4.06-4.74-9.7-7.1-16.91-7.1-13.31,0-29.31,7.56-48.03,22.66v105.19c0,9.02,.51,15.56,1.52,19.62,1.01,4.06,3.89,8.46,8.62,13.19l-.34,1.01h-48.37l-.34-1.01c4.74-4.74,7.61-9.13,8.62-13.19,1.01-4.06,1.52-10.6,1.52-19.62V115c0-9.02-.51-15.56-1.52-19.62Z"/>
        <path d="M481.83,81.68c-4.18-5.07-11.56-7.61-22.15-7.61-11.95,0-22.32,2.82-31.12,8.46-8.79,5.64-17.7,14.66-26.72,27.06l-1.01-.34v-25.71c2.93,0,5.92-.45,8.96-1.35,3.04-.9,6.93-2.25,11.67-4.06,7.66-2.71,14.21-4.79,19.62-6.26,5.41-1.46,11.61-2.2,18.6-2.2,15.78,0,29.26,3.1,40.42,9.3,11.16,6.2,16.74,16.63,16.74,31.29v96.06c0,9.02,.51,15.56,1.52,19.62,1.01,4.06,3.89,8.46,8.62,13.19l-.34,1.01h-38.56v-15.56c-5.41,6.09-11.95,10.43-19.62,13.02-7.67,2.59-15.56,3.89-23.68,3.89-18.04,0-31.62-4.06-40.76-12.18-9.13-8.12-13.7-18.49-13.7-31.12s3.04-22.6,9.13-30.61c6.09-8,13.3-14.15,21.65-18.43,8.34-4.28,18.94-8.79,31.79-13.53,12.4-4.51,21.36-8.46,26.89-11.84,5.52-3.38,8.29-7.89,8.29-13.53v-2.03c0-12.63-2.09-21.48-6.26-26.55Zm-55.81,144.09c5.07,7.1,12.46,10.65,22.15,10.65s19.33-3.27,27.57-9.81c8.23-6.54,12.35-17.25,12.35-32.13V121.42c-2.26,2.71-5.19,5.36-8.79,7.95-3.61,2.59-8.46,5.7-14.54,9.3-9.47,5.64-17.31,10.88-23.51,15.73-6.2,4.85-11.56,11.05-16.07,18.6-4.51,7.56-6.76,16.4-6.76,26.55s2.54,19.11,7.61,26.21Z"/>
        <path d="M552.52,95.38c-1.01-4.06-3.89-8.46-8.62-13.19l.34-1.02,38.56-13.53V230.67c0,16.01-2.31,28.92-6.93,38.73-4.62,9.81-10.37,17.25-17.25,22.32-6.88,5.07-16.18,10.43-27.9,16.07l-1.01-2.37c7.89-4.51,13.53-10.37,16.91-17.59,3.38-7.22,5.46-16.74,6.26-28.58,.79-11.84,1.18-30.61,1.18-56.32V115c0-9.02-.51-15.56-1.52-19.62Zm1.35-72.55c3.94-3.94,8.74-5.92,14.38-5.92s10.43,1.98,14.38,5.92c3.94,3.95,5.92,8.74,5.92,14.38s-1.98,10.43-5.92,14.37c-3.95,3.95-8.74,5.92-14.38,5.92s-10.43-1.97-14.38-5.92c-3.95-3.94-5.92-8.74-5.92-14.37s1.97-10.43,5.92-14.38Z"/>
        <path d="M613.9,104.85c-3.38-8.79-6.26-15.67-8.62-20.63-2.37-4.96-5.02-9.02-7.95-12.18l.34-1.01h50.4l.34,1.01c-2.93,2.93-4.96,5.58-6.09,7.95-1.13,2.37-1.69,5.02-1.69,7.95,0,4.06,1.35,9.7,4.06,16.91l37.88,97.07,37.54-97.07c6.31-16.23,12.18-28.13,17.59-35.68,5.41-7.55,12.63-13.58,21.65-18.1-3.61-4.06-5.41-8.68-5.41-13.87,0-5.63,1.97-10.43,5.92-14.38,3.94-3.94,8.74-5.92,14.38-5.92s10.43,1.98,14.38,5.92c3.94,3.95,5.92,8.74,5.92,14.38s-1.98,10.43-5.92,14.37-8.74,5.92-14.38,5.92h-.34c-9.02,0-16.29,1.64-21.82,4.9-5.53,3.27-10.15,8.12-13.87,14.54-3.72,6.43-7.95,15.73-12.68,27.9l-52.43,135.29h-6.43l-52.76-135.29Zm144.59,121.09c1.01-4.06,1.52-10.6,1.52-19.62V115c0-9.02-.51-15.56-1.52-19.62-1.02-4.06-3.89-8.46-8.62-13.19l.34-1.02,38.56-13.53V206.32c0,9.02,.51,15.56,1.52,19.62,1.01,4.06,3.89,8.46,8.62,13.19l-.34,1.01h-48.37l-.34-1.01c4.74-4.74,7.61-9.13,8.62-13.19Z"/>
        <path d="M819.21,239.13c4.74-4.74,7.61-9.13,8.62-13.19,1.01-4.06,1.52-10.6,1.52-19.62V70.69c0-9.02-.51-15.56-1.52-19.62-1.01-4.06-3.89-8.46-8.62-13.19l.34-1.01,36.19-12.85L924.06,0V206.32c0,9.02,.51,15.56,1.52,19.62,1.01,4.06,3.89,8.46,8.62,13.19l-.34,1.01h-48.37l-.34-1.01c4.74-4.74,7.61-9.13,8.62-13.19,1.01-4.06,1.52-10.6,1.52-19.62V37.21c0-6.31-.51-10.77-1.52-13.36-1.02-2.59-3.78-3.89-8.29-3.89-5.41,0-14.54,2.26-27.4,6.76V206.32c0,9.02,.51,15.56,1.52,19.62,1.01,4.06,3.89,8.46,8.62,13.19l-.34,1.01h-48.37l-.34-1.01Z"/>
        <path d="M966.17,90.14c14.32-13.64,32.75-20.46,55.3-20.46,20.07,0,36.98,5.36,50.73,16.07,13.75,10.71,22.32,27.12,25.71,49.21l-14.54,4.4-77.46,22.66c-19.62,5.64-29.43,13.53-29.43,23.68,0,1.58,.11,2.71,.34,3.38,4.06,15.11,10.71,26.44,19.96,33.99,9.24,7.56,19.62,11.33,31.12,11.33,10.15,0,19.73-2.65,28.75-7.95,9.02-5.3,16.79-12.79,23.34-22.49l2.71,1.69c-7.9,11.73-17.48,20.63-28.75,26.72-11.28,6.09-23.12,9.13-35.51,9.13s-24.92-3.27-36.19-9.81c-11.28-6.54-20.41-16.12-27.4-28.75-6.99-12.63-10.6-27.73-10.82-45.32v-4.4c.45-28.41,7.83-49.43,22.15-63.08Zm8.29,88.45c2.03-4.96,5.52-9.13,10.49-12.51,4.96-3.38,11.72-6.43,20.29-9.13l64.6-18.94c-1.13-20.97-5.53-36.87-13.19-47.69-7.67-10.82-19.4-16.23-35.18-16.23-17.59,0-30.1,6.88-37.54,20.63-7.44,13.76-11.16,34.05-11.16,60.88,0,7.9,.56,15.56,1.69,23Z"/>
      </g>
      <g>
        <polygon class="cls-4" points="129.48 57.53 87.62 33.2 45.75 57.53 41.41 60.05 41.41 11.98 64.21 26.07 64.21 21.97 41.16 7.37 18.62 19.66 18.62 73.29 0 84.11 0 232.85 43.59 271.31 43.59 107.19 87.62 81.73 131.64 107.19 131.64 271.31 175.23 232.85 175.23 84.11 129.48 57.53"/>
        <rect class="cls-5" x="67.14" y="162.96" width="16.62" height="16.62"/>
        <rect class="cls-6" x="91.47" y="162.96" width="16.62" height="16.62"/>
        <rect class="cls-2" x="67.14" y="139.82" width="16.62" height="16.62"/>
        <rect class="cls-1" x="91.47" y="139.82" width="16.62" height="16.62"/>
        <polygon class="cls-3" points="64.21 39.31 64.21 32.43 54.4 26.83 54.4 44.9 64.21 39.31"/>
      </g>
      <g>
        <path d="M756.97,271.15h10.52v6.83c2.12-4.55,6.05-6.83,11.78-6.83,3.38,0,5.97,.79,8.09,1.96l-4,10.05c-1.57-1.02-3.3-1.81-6.36-1.81-6.2,0-9.42,3.3-9.42,11.23v24.5h-10.6v-45.94Z"/>
        <path d="M786.5,294.23c0-13.43,10.44-24.03,23.87-24.03s23.64,10.05,23.64,23.64v4h-37.38c1.49,6.52,6.6,10.84,14.13,10.84,5.97,0,10.52-3.14,12.72-8.09l8.72,5.03c-4,7.46-11.07,12.41-21.44,12.41-14.45,0-24.26-10.52-24.26-23.79Zm10.68-5.26h26.07c-1.57-6.2-6.28-9.42-12.88-9.42s-11.31,3.77-13.19,9.42Z"/>
        <path d="M835.97,294.16c0-15.23,11.15-23.95,22.77-23.95,6.05,0,11.39,2.43,14.76,6.44v-5.5h10.6v45.94h-10.6v-5.97c-3.38,4.32-8.87,6.91-14.92,6.91-11.07,0-22.61-8.79-22.61-23.87Zm38.08-.16c0-7.85-5.81-14.13-13.74-14.13s-13.9,6.2-13.9,14.13,6.05,14.29,13.9,14.29,13.74-6.36,13.74-14.29Z"/>
        <path d="M888.89,258.98h10.68v58.11h-10.68v-58.11Z"/>
        <path d="M902.79,271.15h7.85v-6.99l10.68-7.3v14.29h9.34v9.5h-9.34v17.2c0,8.01,1.18,9.27,9.34,9.27v9.97h-1.49c-14.21,0-18.53-4.55-18.53-19.16v-17.27h-7.85v-9.5Z"/>
        <path d="M939.85,253.25c4.16,0,6.67,2.67,6.67,6.67s-2.51,6.6-6.67,6.6-6.67-2.59-6.67-6.6,2.59-6.67,6.67-6.67Zm-5.34,17.9h10.68v45.94h-10.68v-45.94Z"/>
        <path d="M948.56,294.23c0-13.43,10.44-24.03,23.87-24.03s23.64,10.05,23.64,23.64v4h-37.38c1.49,6.52,6.6,10.84,14.13,10.84,5.97,0,10.52-3.14,12.72-8.09l8.72,5.03c-4,7.46-11.07,12.41-21.44,12.41-14.45,0-24.26-10.52-24.26-23.79Zm10.68-5.26h26.07c-1.57-6.2-6.28-9.42-12.88-9.42s-11.31,3.77-13.19,9.42Z"/>
        <path d="M996.38,306.88l9.82-4.71c2.2,4.32,6.05,6.67,11.07,6.67s7.85-2.51,7.85-5.58c0-3.38-5.1-4-10.76-5.26-7.85-1.65-16.1-4.16-16.1-13.82,0-7.38,7.15-14.06,18.06-14.06,9.34,0,15.23,3.61,18.77,9.5l-9.03,4.55c-1.88-3.22-5.34-5.26-9.74-5.26-5.03,0-7.38,2.36-7.38,4.95,0,3.06,3.61,3.85,10.52,5.34,7.54,1.49,16.18,4.16,16.18,13.82,0,6.44-5.73,15-18.85,15-10.29,0-16.73-3.93-20.42-11.15Z"/>
      </g>
    </g>
  </g>
</svg>