<?xml version="1.0" encoding="UTF-8"?>
<svg id="Layer_2" data-name="Layer 2" xmlns="http://www.w3.org/2000/svg" xmlns:xlink="http://www.w3.org/1999/xlink" viewBox="0 0 285.8 152.03">
  <defs>
    <style>
      .cls-1 {
        fill: url(#linear-gradient-2);
      }

      .cls-2 {
        fill: url(#linear-gradient-5);
      }

      .cls-3 {
        fill: url(#linear-gradient-3);
      }

      .cls-4 {
        fill: url(#linear-gradient);
      }

      .cls-5 {
        fill: url(#linear-gradient-4);
      }
    </style>
    <linearGradient id="linear-gradient" x1="2177.54" y1="-5231.74" x2="2177.54" y2="-5030.17" gradientTransform="translate(2231.81 5244.39) rotate(-45)" gradientUnits="userSpaceOnUse">
      <stop offset="0" stop-color="#ffaf1c"/>
      <stop offset=".27" stop-color="#ffb51a"/>
      <stop offset=".64" stop-color="#ffc717"/>
      <stop offset="1" stop-color="#ffdf14"/>
    </linearGradient>
    <linearGradient id="linear-gradient-2" x1="2177.54" y1="-5231.75" x2="2177.54" y2="-5030.17" gradientTransform="translate(2231.81 5244.39) rotate(-45)" gradientUnits="userSpaceOnUse">
      <stop offset="0" stop-color="#ffaf1c"/>
      <stop offset=".66" stop-color="#ffb516"/>
      <stop offset="1" stop-color="#ffbb12"/>
    </linearGradient>
    <linearGradient id="linear-gradient-3" x1="2177.54" y1="-5231.75" x2="2177.54" y2="-5030.17" gradientTransform="translate(2231.81 5244.39) rotate(-45)" gradientUnits="userSpaceOnUse">
      <stop offset="0" stop-color="#ffaf1c"/>
      <stop offset=".29" stop-color="#ffa81b"/>
      <stop offset=".69" stop-color="#ff9619"/>
      <stop offset="1" stop-color="#ff8418"/>
    </linearGradient>
    <linearGradient id="linear-gradient-4" x1="142.9" y1="100.67" x2="142.9" y2="50.67" gradientUnits="userSpaceOnUse">
      <stop offset="0" stop-color="#ff890d"/>
      <stop offset="1" stop-color="#ffda07"/>
    </linearGradient>
    <linearGradient id="linear-gradient-5" x1="142.9" y1="4.03" x2="142.9" y2="166.22" gradientUnits="userSpaceOnUse">
      <stop offset="0" stop-color="#ffda07"/>
      <stop offset="1" stop-color="#ff890d"/>
    </linearGradient>
  </defs>
  <g id="OBJECT">
    <g>
      <path class="cls-4" d="M98.65,120.26c-24.4-24.4-24.4-64.09,0-88.49,24.4-24.4,64.09-24.4,88.49,0,24.4,24.4,24.4,64.09,0,88.49-24.4,24.4-64.09,24.4-88.49,0ZM181.88,37.03c-21.5-21.5-56.47-21.5-77.97,0-21.5,21.5-21.5,56.47,0,77.97,21.5,21.5,56.47,21.5,77.97,0,21.5-21.5,21.5-56.47,0-77.97Z"/>
      <path class="cls-1" d="M109.06,109.85c-18.66-18.66-18.66-49.02,0-67.68,18.66-18.66,49.02-18.66,67.68,0,18.66,18.66,18.66,49.02,0,67.68-18.66,18.66-49.02,18.66-67.68,0Zm62.42-62.42c-15.76-15.76-41.4-15.76-57.16,0-15.76,15.76-15.76,41.4,0,57.16,15.76,15.76,41.4,15.76,57.16,0,15.76-15.76,15.76-41.4,0-57.16Z"/>
      <path class="cls-3" d="M119.46,99.45c-12.92-12.92-12.92-33.95,0-46.87,12.92-12.92,33.95-12.92,46.87,0,12.92,12.92,12.92,33.95,0,46.87-12.92,12.92-33.95,12.92-46.87,0Zm41.61-41.61c-10.02-10.02-26.33-10.02-36.36,0-10.02,10.02-10.02,26.33,0,36.35,10.02,10.02,26.33,10.02,36.35,0s10.02-26.33,0-36.36Z"/>
      <path class="cls-5" d="M129.86,89.05c-7.19-7.19-7.19-18.88,0-26.07s18.88-7.19,26.07,0c7.19,7.19,7.19,18.88,0,26.07-7.19,7.19-18.88,7.19-26.07,0Z"/>
      <path class="cls-2" d="M142.9,0C68.48,0,37.04,61.72,0,76.01c37.04,14.29,68.48,76.01,142.9,76.01s105.86-61.72,142.9-76.01C248.76,61.72,217.32,0,142.9,0Zm0,146.17c-38.74,0-70.15-31.41-70.15-70.15S104.16,5.86,142.9,5.86s70.15,31.41,70.15,70.15-31.41,70.15-70.15,70.15Z"/>
    </g>
  </g>
</svg>